# xmcd
#
# Track frame offsets:
#	180
#	19980
#	42295
#	64185
#	86065
#	100645
#	122810
#	141150
#	156215
#	173845
#	190545
#	213870
#	237965
#	254925
#	273235
#
# Disc length: 3903 seconds
#
# Revision: 1
# Processed by: cddbd v1.5.1PL0 Copyright (c) Steve Scherf et al.
# Submitted via: audiograbber 1.83.01
#
DISCID=d30f3d0f
DTITLE=The Music Maestro - Mm6026
DYEAR=1900
DGENRE=Karaoke
TTITLE0=Deburgh, Chris - Lady in Red
TTITLE1=Madonna - Like a Prayer
TTITLE2=Marx, Richard - Right Here Waiting
TTITLE3=Houston, Whitney - Greatest Love of All
TTITLE4=Clark, Petula - Downtown
TTITLE5=Roth, David Lee - I'm Justa Gigilo
TTITLE6=Cole, Natalie - Miss You Like Crazy
TTITLE7=Orlando, Tony - Tie a Yellow Ribbon
TTITLE8=Streisand, Barbra - The Way We Were
TTITLE9=Sinatra, Frank - New York New York
TTITLE10=Milder, Bette - Wind Beneath My Wings
TTITLE11=Houston, Whitney - One Moment In Time
TTITLE12=Eagles, The - Desperado
TTITLE13=Raitt, Bonnie - Nick of Time
TTITLE14=Springsteen, Bruce - Born in the USA
EXTD=All Time Favorites Vol I
EXTT0=
EXTT1=
EXTT2=
EXTT3=
EXTT4=
EXTT5=
EXTT6=
EXTT7=
EXTT8=
EXTT9=
EXTT10=
EXTT11=
EXTT12=
EXTT13=
EXTT14=
PLAYORDER=
